<?xml version="1.0" encoding="UTF-8"?>
<svg id="Layer_1" xmlns="http://www.w3.org/2000/svg" version="1.1" viewBox="0 0 595.28 103.35">
  <!-- Generator: Adobe Illustrator 30.4.0, SVG Export Plug-In . SVG Version: 2.1.4 Build 226)  -->
  <defs>
    <style>
      .st0 {
        fill: #222d65;
      }
    </style>
  </defs>
  <path class="st0" d="M182.31,85.36h36.89c3.26,0,5.43-2.41,5.43-5.87v-2.91c-1.76.42-4.43.54-9.42.54h-12.18l21.13-40.68h-41.52v8.09h18.54l-17.71,33.62c-1.58,2.94-1.77,5.28-1.17,7.21"/>
  <path class="st0" d="M145.47,59.34l9.57,18.43c2.68,5.32,3.87,7.59,9.9,7.59h13.61c-.75-.63-1.52-1.93-2.87-4.31l-13.92-25.64,16.28-18.97h-14.52l-18.05,22.9Z"/>
  <path class="st0" d="M127.6,85.36h16.85V26.88c0-6.07-4.43-10-10.51-10h-6.34v68.48Z"/>
  <path class="st0" d="M120.1,80.91l-16.87-50.17c-1.99-6.02-4.06-8.75-12.34-8.75h-7.98l-23.49,63.37h10.64l5.35-15.67h22.62l3.21,10.12c1.2,3.76,2.65,5.39,6.71,5.39h14.22c-.68-.69-1.16-1.79-2.07-4.28M78.02,62.01l9.11-26.54,8.44,26.54h-17.55Z"/>
  <path class="st0" d="M253.18,86.47c14.03,0,25.98-9.98,25.98-26.63,0-14.15-11.33-24.64-25.68-24.64s-26.07,10.29-26.07,26.93c0,14.63,11.85,24.34,25.77,24.34M253.38,77.45c-5.74,0-7.77-6.56-7.77-16.89s1.97-16.54,7.77-16.54,7.61,7.07,7.61,17.38c0,9.76-1.86,16.05-7.61,16.05"/>
  <path class="st0" d="M286.77,85.36h10.53v-40.38l26.85,32.15c3.76,4.59,6.2,8.23,10.26,8.23h7.71V27.33c0-3.4-2.26-5.56-5.72-5.56h-4.67v38.25l-25.81-30.76c-3.8-4.59-5.79-7.49-11.4-7.49h-7.75v63.58Z"/>
  <path class="st0" d="M375.17,86.47c14.01,0,25.96-9.98,25.96-26.63,0-14.15-11.3-24.64-25.68-24.64s-26.02,10.29-26.02,26.93c0,14.67,11.83,24.34,25.74,24.34M375.4,77.45c-5.75,0-7.8-6.56-7.8-16.89s1.98-16.54,7.8-16.54,7.58,7.12,7.58,17.41c0,9.73-1.88,16.02-7.58,16.02"/>
  <path class="st0" d="M511.65,61.8c.27-1.96.36-3.92.36-5.67,0-11.6-8.58-20.88-23.31-20.88s-25.24,10.25-25.24,25.75,9.35,25.47,24.65,25.47,20.84-7.9,21.14-15.58c-3.26,2.34-8.29,3.72-13.95,3.72-8.54,0-14.08-4.89-14.85-12.82h31.19ZM480.43,55.1c.58-7.22,3.36-11.79,8.11-11.79,6.48,0,7.77,11.79,7.77,11.79h-15.87Z"/>
  <path class="st0" d="M438.09,35.75c-5.71,0-10.5,2.09-12.82,4.44v-13.29c0-6.1-4.36-10.03-10.5-10.03h-6.33v68.48h19.75c18.87,0,29.35-9.83,29.35-28.17,0-12.25-8.39-21.43-19.45-21.43M427.8,77.12h-2.53v-31.5c1.05-.13,1.93-.26,3.62-.26,6.43,0,11.26,5.96,11.26,13.81,0,11.72-4.45,17.95-12.34,17.95"/>
  <path class="st0" d="M519.05,85.36h16.8V26.91c0-6.1-4.46-10.03-10.57-10.03h-6.23v68.48Z"/>
</svg>