<?xml version="1.0" encoding="UTF-8"?>
<svg id="Logo_version_Horizontal" xmlns="http://www.w3.org/2000/svg" version="1.1" viewBox="0 0 841.89 252.92">
  <!-- Generator: Adobe Illustrator 30.4.0, SVG Export Plug-In . SVG Version: 2.1.4 Build 226)  -->
  <defs>
    <style>
      .st0 {
        fill: #951b81;
      }

      .st1 {
        fill: #0bbbef;
      }

      .st2 {
        fill: #ffde00;
      }

      .st3 {
        fill: #142027;
      }

      .st4 {
        fill: #f39202;
      }

      .st5 {
        fill: #fff;
      }

      .st6 {
        fill: #e30613;
      }

      .st7 {
        fill: #e8308a;
      }

      .st8 {
        fill: #2a6ab2;
      }

      .st9 {
        fill: #3aaa35;
      }
    </style>
  </defs>
  <g>
    <g>
      <g>
        <path class="st5" d="M333.53,167.53h8.85c5.33,0,8.85,2.84,8.85,7.5v.07c0,5.11-4.25,7.74-9.29,7.74h-5.74v8.35h-2.67v-23.66ZM342.04,180.41c3.92,0,6.49-2.09,6.49-5.2v-.07c0-3.38-2.54-5.14-6.35-5.14h-5.98v10.41h5.84Z"/>
        <path class="st5" d="M369.01,167.53h2.67v23.66h-2.67v-23.66Z"/>
        <path class="st5" d="M391.27,167.53h2.5l14.91,18.96v-18.96h2.6v23.66h-2.13l-15.27-19.4v19.4h-2.6v-23.66Z"/>
        <path class="st5" d="M436.89,170h-7.94v-2.47h18.6v2.47h-7.95v21.19h-2.7v-21.19Z"/>
        <path class="st5" d="M464.84,181.28v-13.75h2.67v13.58c0,5.1,2.7,7.98,7.23,7.98s7.13-2.64,7.13-7.81v-13.75h2.67v13.55c0,6.89-3.96,10.48-9.87,10.48s-9.83-3.58-9.83-10.28Z"/>
        <path class="st5" d="M503.54,167.53h10.17c2.91,0,5.24.88,6.73,2.36,1.15,1.15,1.82,2.8,1.82,4.66v.07c0,3.92-2.7,6.22-6.43,6.89l7.27,9.67h-3.28l-6.85-9.2h-6.76v9.2h-2.67v-23.66ZM513.47,179.6c3.55,0,6.09-1.82,6.09-4.87v-.07c0-2.91-2.23-4.66-6.06-4.66h-7.29v9.6h7.26Z"/>
        <path class="st5" d="M540.64,167.53h17.1v2.43h-14.43v8.07h12.91v2.43h-12.91v8.28h14.6v2.43h-17.27v-23.66Z"/>
        <path class="st5" d="M575.95,167.53h10.17c2.91,0,5.24.88,6.73,2.36,1.15,1.15,1.83,2.8,1.83,4.66v.07c0,3.92-2.7,6.22-6.42,6.89l7.26,9.67h-3.27l-6.86-9.2h-6.76v9.2h-2.67v-23.66ZM585.89,179.6c3.54,0,6.08-1.82,6.08-4.87v-.07c0-2.91-2.24-4.66-6.04-4.66h-7.3v9.6h7.27Z"/>
        <path class="st5" d="M613.3,167.53h2.67v23.66h-2.67v-23.66ZM616.94,161.08l2.67,1.22-3.88,3.14h-2.16l3.37-4.35Z"/>
        <path class="st5" d="M644.32,167.37h2.5l10.78,23.82h-2.87l-2.77-6.25h-12.88l-2.8,6.25h-2.74l10.79-23.82ZM650.91,182.53l-5.37-12.06-5.41,12.06h10.78Z"/>
        <path class="st5" d="M672.9,187.74l1.66-1.96c2.47,2.23,4.83,3.34,8.11,3.34s5.27-1.69,5.27-4.02v-.06c0-2.2-1.18-3.45-6.15-4.49-5.45-1.18-7.95-2.95-7.95-6.83v-.07c0-3.72,3.28-6.45,7.77-6.45,3.45,0,5.91.98,8.31,2.9l-1.55,2.07c-2.19-1.79-4.39-2.57-6.82-2.57-3.08,0-5.04,1.69-5.04,3.82v.07c0,2.23,1.22,3.48,6.43,4.6,5.27,1.15,7.7,3.07,7.7,6.68v.07c0,4.06-3.38,6.69-8.07,6.69-3.75,0-6.82-1.25-9.67-3.78Z"/>
      </g>
      <g>
        <path class="st5" d="M325.34,110.27v-.26c0-19.4,15-35.7,35.43-35.7,12.94,0,20.96,4.79,27.3,11.77l-9.71,10.48c-4.79-5.04-9.83-8.53-17.72-8.53-11.38,0-19.66,9.83-19.66,21.73v.26c0,12.16,8.41,21.98,20.44,21.98,7.38,0,12.81-3.49,17.72-8.53l9.44,9.32c-6.72,7.5-14.61,12.8-27.94,12.8-20.3,0-35.3-15.9-35.3-35.31Z"/>
        <path class="st5" d="M390.89,110.14v-.26c0-19.53,13.84-35.57,33.38-35.57,21.73,0,32.72,17.07,32.72,36.73,0,1.42-.13,2.84-.26,4.4h-50.19c1.69,11.12,9.58,17.33,19.66,17.33,7.64,0,13.06-2.85,18.5-8.15l9.18,8.15c-6.47,7.75-15.39,12.8-27.93,12.8-19.79,0-35.06-14.35-35.06-35.43ZM441.46,105.1c-1.03-10.09-6.98-17.98-17.33-17.98-9.57,0-16.29,7.37-17.72,17.98h35.05Z"/>
        <path class="st5" d="M466.42,75.73h15.65v10.61c4.4-6.46,10.73-12.03,21.34-12.03,15.39,0,24.31,10.35,24.31,26.25v43.46h-15.65v-38.8c0-10.61-5.3-16.69-14.61-16.69s-15.39,6.34-15.39,16.94v38.54h-15.65v-68.29Z"/>
        <path class="st5" d="M543.51,125.14v-35.96h-8.66v-13.45h8.66v-18.75h15.65v18.75h18.37v13.45h-18.37v33.5c0,6.08,3.11,8.53,8.41,8.53,3.49,0,6.6-.78,9.7-2.33v12.81c-3.88,2.2-8.27,3.49-14.1,3.49-11.51,0-19.66-5.04-19.66-20.05Z"/>
        <path class="st5" d="M586.96,75.73h15.66v15.39c4.27-10.22,12.16-17.2,24.19-16.69v16.56h-.91c-13.71,0-23.28,8.93-23.28,27.03v26h-15.66v-68.29Z"/>
        <path class="st5" d="M627.95,110.27v-.26c0-19.53,15.52-35.7,36.47-35.7s36.34,15.91,36.34,35.44v.26c0,19.4-15.52,35.56-36.6,35.56s-36.21-15.9-36.21-35.31ZM685.12,110.27v-.26c0-12.03-8.67-21.98-20.95-21.98s-20.56,9.83-20.56,21.73v.26c0,11.9,8.66,21.98,20.82,21.98s20.69-9.96,20.69-21.73Z"/>
      </g>
    </g>
    <g>
      <path class="st9" d="M222.26,142c-2.05,0-3.98-.8-5.43-2.25l-12.55-12.54c-2.63-2.63-4.08-6.13-4.08-9.85s1.45-7.22,4.08-9.85l51.62-51.62c1.45-1.45,3.38-2.25,5.43-2.25s3.98.8,5.43,2.25l12.54,12.55c2.63,2.63,4.08,6.13,4.08,9.85s-1.45,7.22-4.08,9.85l-51.62,51.62c-1.45,1.45-3.38,2.25-5.43,2.25Z"/>
      <path class="st5" d="M261.33,55.08c1.6,0,3.2.61,4.42,1.83l12.54,12.54c4.88,4.88,4.88,12.79,0,17.66l-51.62,51.62c-1.22,1.22-2.82,1.83-4.42,1.83s-3.2-.61-4.42-1.83l-12.54-12.54c-4.88-4.88-4.88-12.79,0-17.66l51.62-51.62c1.22-1.22,2.82-1.83,4.42-1.83M261.33,52.22c-2.43,0-4.72.95-6.44,2.67l-51.62,51.62c-5.99,5.99-5.99,15.73,0,21.71l12.54,12.54c1.72,1.72,4.01,2.67,6.44,2.67s4.72-.95,6.44-2.67l51.62-51.62c5.99-5.99,5.99-15.73,0-21.71l-12.54-12.54c-1.72-1.72-4.01-2.67-6.44-2.67h0Z"/>
    </g>
    <g>
      <path class="st1" d="M211.13,139.61c-7.68,0-13.92-6.25-13.92-13.92V52.7c0-4.23,3.44-7.68,7.68-7.68h17.74c7.68,0,13.92,6.25,13.92,13.92v73c0,4.23-3.44,7.68-7.67,7.68h-17.74Z"/>
      <path class="st5" d="M222.62,46.45c6.9,0,12.49,5.59,12.49,12.49v73c0,3.45-2.8,6.25-6.25,6.25h-17.74c-6.9,0-12.49-5.59-12.49-12.49V52.69c0-3.45,2.8-6.25,6.25-6.25h17.74M222.62,43.59h-17.74c-5.02,0-9.11,4.09-9.11,9.11v73c0,8.47,6.89,15.35,15.35,15.35h17.74c5.02,0,9.11-4.09,9.11-9.11V58.94c0-8.47-6.89-15.35-15.35-15.35h0Z"/>
    </g>
    <g>
      <path class="st8" d="M214.9,147.63c-3.72,0-7.21-1.45-9.85-4.08l-51.62-51.62c-2.99-2.99-2.99-7.87,0-10.86l12.54-12.55c2.63-2.63,6.13-4.08,9.85-4.08s7.21,1.45,9.85,4.08l51.62,51.62c2.99,2.99,2.99,7.86,0,10.86l-12.55,12.55c-2.63,2.63-6.13,4.08-9.85,4.08Z"/>
      <path class="st5" d="M175.82,65.89c3.2,0,6.39,1.22,8.83,3.66l51.62,51.62c2.44,2.44,2.44,6.39,0,8.83l-12.54,12.54c-2.44,2.44-5.64,3.66-8.83,3.66s-6.39-1.22-8.83-3.66l-51.62-51.62c-2.44-2.44-2.44-6.39,0-8.83l12.54-12.54c2.44-2.44,5.64-3.66,8.83-3.66M175.82,63.02c-4.1,0-7.96,1.6-10.86,4.5l-12.54,12.54c-3.55,3.55-3.55,9.33,0,12.88l51.62,51.62c2.9,2.9,6.76,4.5,10.86,4.5s7.96-1.6,10.86-4.5l12.54-12.54c3.55-3.55,3.55-9.33,0-12.88l-51.62-51.62c-2.9-2.9-6.76-4.5-10.86-4.5h0Z"/>
    </g>
    <g>
      <path class="st0" d="M150.23,150.63c-4.23,0-7.68-3.44-7.68-7.68v-17.74c0-7.68,6.25-13.92,13.92-13.92h73c4.23,0,7.68,3.44,7.68,7.68v31.66h-86.92Z"/>
      <path class="st5" d="M229.48,112.72c3.45,0,6.25,2.8,6.25,6.25v30.23h-85.49c-3.45,0-6.25-2.8-6.25-6.25v-17.74c0-6.9,5.59-12.49,12.49-12.49h73M229.48,109.86h-73c-8.47,0-15.35,6.89-15.35,15.35v17.74c0,5.02,4.09,9.11,9.11,9.11h88.35v-33.1c0-5.02-4.09-9.11-9.11-9.11h0Z"/>
    </g>
    <g>
      <path class="st7" d="M184.04,196.65c-2.05,0-3.98-.8-5.43-2.25l-12.55-12.55c-5.43-5.43-5.43-14.26,0-19.69l51.62-51.62c1.45-1.45,3.38-2.25,5.43-2.25s3.98.8,5.43,2.25l12.54,12.54c2.63,2.63,4.08,6.13,4.08,9.85s-1.45,7.22-4.08,9.85l-51.62,51.62c-1.45,1.45-3.38,2.25-5.43,2.25Z"/>
      <path class="st5" d="M223.12,109.73c1.6,0,3.2.61,4.42,1.83l12.54,12.54c4.88,4.88,4.88,12.79,0,17.66l-51.62,51.62c-1.22,1.22-2.82,1.83-4.42,1.83s-3.2-.61-4.42-1.83l-12.54-12.54c-4.88-4.88-4.88-12.79,0-17.66l51.62-51.62c1.22-1.22,2.82-1.83,4.42-1.83M223.12,106.87c-2.43,0-4.72.95-6.44,2.67l-51.62,51.62c-5.99,5.99-5.99,15.73,0,21.71l12.54,12.54c1.72,1.72,4.01,2.67,6.44,2.67s4.72-.95,6.44-2.67l51.62-51.62c2.9-2.9,4.5-6.76,4.5-10.86s-1.6-7.96-4.5-10.86l-12.54-12.54c-1.72-1.72-4.01-2.67-6.44-2.67h0Z"/>
    </g>
    <g>
      <path class="st6" d="M222.02,205.28c-7.68,0-13.92-6.25-13.92-13.92v-73c0-4.23,3.44-7.68,7.68-7.68h17.74c7.68,0,13.92,6.25,13.92,13.92v73c0,4.23-3.44,7.68-7.68,7.68h-17.74Z"/>
      <path class="st5" d="M233.51,112.12c6.9,0,12.49,5.59,12.49,12.49v73c0,3.45-2.8,6.25-6.25,6.25h-17.74c-6.9,0-12.49-5.59-12.49-12.49v-73c0-3.45,2.8-6.25,6.25-6.25h17.74M233.51,109.25h-17.74c-5.02,0-9.11,4.09-9.11,9.11v73c0,8.47,6.89,15.35,15.35,15.35h17.74c5.02,0,9.11-4.09,9.11-9.11v-73c0-8.47-6.89-15.35-15.35-15.35h0Z"/>
    </g>
    <g>
      <path class="st4" d="M269.37,190.43c-3.72,0-7.21-1.45-9.85-4.08l-48.38-48.44c-1.45-1.45-2.25-3.38-2.25-5.43s.8-3.98,2.25-5.43l12.54-12.55c2.63-2.63,6.13-4.08,9.85-4.08s7.21,1.45,9.85,4.08l48.38,48.44c2.99,2.99,2.99,7.86,0,10.85l-12.55,12.55c-2.63,2.63-6.13,4.08-9.84,4.08Z"/>
      <path class="st5" d="M233.54,111.87c3.2,0,6.39,1.22,8.83,3.66l48.38,48.44c2.44,2.44,2.44,6.39,0,8.83l-12.54,12.54c-2.44,2.44-5.64,3.66-8.83,3.66s-6.39-1.22-8.83-3.66l-48.38-48.44c-2.44-2.44-2.44-6.39,0-8.83l12.54-12.54c2.44-2.44,5.64-3.66,8.83-3.66M233.54,109.01c-4.1,0-7.96,1.6-10.86,4.5l-12.54,12.54c-3.55,3.55-3.55,9.33,0,12.88l48.38,48.44c2.9,2.9,6.76,4.5,10.86,4.5s7.96-1.6,10.86-4.5l12.54-12.54c3.55-3.55,3.55-9.33,0-12.88l-48.38-48.44c-2.9-2.9-6.76-4.5-10.86-4.5h0Z"/>
    </g>
    <g>
      <path class="st2" d="M215.9,139.01c-4.23,0-7.68-3.44-7.68-7.68v-17.74c0-7.68,6.25-13.92,13.92-13.92h73c4.23,0,7.68,3.44,7.68,7.68v17.74c0,7.68-6.25,13.92-13.93,13.92h-73Z"/>
      <path class="st5" d="M295.14,101.1c3.45,0,6.25,2.8,6.25,6.25v17.74c0,6.9-5.59,12.49-12.49,12.49h-73c-3.45,0-6.25-2.8-6.25-6.25v-17.74c0-6.9,5.59-12.49,12.49-12.49h73M295.14,98.23h-73c-8.47,0-15.35,6.89-15.35,15.35v17.74c0,5.02,4.09,9.11,9.11,9.11h73c8.47,0,15.35-6.89,15.35-15.35v-17.74c0-5.02-4.09-9.11-9.11-9.11h0Z"/>
    </g>
  </g>
  <polygon class="st3" points="-1252.52 -888.01 -1241.03 -894.67 -1243.02 -898.08 -1254.51 -891.43 -1252.52 -888.01"/>
</svg>