<?xml version="1.0" encoding="UTF-8"?>
<svg id="Logo_version_Horizontal" xmlns="http://www.w3.org/2000/svg" version="1.1" viewBox="0 0 197 191">
  <!-- Generator: Adobe Illustrator 30.0.0, SVG Export Plug-In . SVG Version: 2.1.1 Build 123)  -->
  <defs>
    <style>
      .st0 {
        fill: #fff;
      }

      .st1 {
        fill: #0bbbef;
      }

      .st2 {
        fill: #2a6ab2;
      }

      .st3 {
        fill: #3aaa35;
      }

      .st4 {
        fill: #e30613;
      }

      .st5 {
        fill: #951b81;
      }

      .st6 {
        fill: #ffde00;
      }

      .st7 {
        fill: #f39202;
      }

      .st8 {
        fill: #e8308a;
      }
    </style>
  </defs>
  <g>
    <path class="st3" d="M94.57,113.49c-2.05,0-3.98-.8-5.43-2.25l-12.55-12.54c-2.63-2.63-4.08-6.13-4.08-9.85s1.45-7.22,4.08-9.85l51.62-51.62c1.45-1.45,3.38-2.25,5.43-2.25s3.98.8,5.43,2.25l12.54,12.55c2.63,2.63,4.08,6.13,4.08,9.85s-1.45,7.22-4.08,9.85l-51.62,51.62c-1.45,1.45-3.38,2.25-5.43,2.25Z"/>
    <path class="st0" d="M133.64,26.57c1.6,0,3.2.61,4.42,1.83l12.54,12.54c4.88,4.88,4.88,12.79,0,17.66l-51.62,51.62c-1.22,1.22-2.82,1.83-4.42,1.83s-3.2-.61-4.42-1.83l-12.54-12.54c-4.88-4.88-4.88-12.79,0-17.66l51.62-51.62c1.22-1.22,2.82-1.83,4.42-1.83M133.64,23.71c-2.43,0-4.72.95-6.44,2.67l-51.62,51.62c-5.99,5.99-5.99,15.73,0,21.71l12.54,12.54c1.72,1.72,4.01,2.67,6.44,2.67s4.72-.95,6.44-2.67l51.62-51.62c5.99-5.99,5.99-15.73,0-21.71l-12.54-12.54c-1.72-1.72-4.01-2.67-6.44-2.67h0Z"/>
  </g>
  <g>
    <path class="st1" d="M83.44,111.1c-7.68,0-13.92-6.25-13.92-13.92V24.19c0-4.23,3.44-7.68,7.68-7.68h17.74c7.68,0,13.92,6.25,13.92,13.92v73c0,4.23-3.44,7.68-7.67,7.68h-17.74Z"/>
    <path class="st0" d="M94.93,17.94c6.9,0,12.49,5.59,12.49,12.49v73c0,3.45-2.8,6.25-6.25,6.25h-17.74c-6.9,0-12.49-5.59-12.49-12.49V24.18c0-3.45,2.8-6.25,6.25-6.25h17.74M94.93,15.08h-17.74c-5.02,0-9.11,4.09-9.11,9.11v73c0,8.47,6.89,15.35,15.35,15.35h17.74c5.02,0,9.11-4.09,9.11-9.11V30.43c0-8.47-6.89-15.35-15.35-15.35h0Z"/>
  </g>
  <g>
    <path class="st2" d="M87.21,119.12c-3.72,0-7.21-1.45-9.85-4.08L25.74,63.43c-2.99-2.99-2.99-7.87,0-10.86l12.54-12.55c2.63-2.63,6.13-4.08,9.85-4.08s7.21,1.45,9.85,4.08l51.62,51.62c2.99,2.99,2.99,7.86,0,10.86l-12.55,12.55c-2.63,2.63-6.13,4.08-9.85,4.08Z"/>
    <path class="st0" d="M48.13,37.38c3.2,0,6.39,1.22,8.83,3.66l51.62,51.62c2.44,2.44,2.44,6.39,0,8.83l-12.54,12.54c-2.44,2.44-5.64,3.66-8.83,3.66s-6.39-1.22-8.83-3.66L26.76,62.41c-2.44-2.44-2.44-6.39,0-8.83l12.54-12.54c2.44-2.44,5.64-3.66,8.83-3.66M48.13,34.51c-4.1,0-7.96,1.6-10.86,4.5l-12.54,12.54c-3.55,3.55-3.55,9.33,0,12.88l51.62,51.62c2.9,2.9,6.76,4.5,10.86,4.5s7.96-1.6,10.86-4.5l12.54-12.54c3.55-3.55,3.55-9.33,0-12.88l-51.62-51.62c-2.9-2.9-6.76-4.5-10.86-4.5h0Z"/>
  </g>
  <g>
    <path class="st5" d="M22.54,122.12c-4.23,0-7.68-3.44-7.68-7.68v-17.74c0-7.68,6.25-13.92,13.92-13.92h73c4.23,0,7.68,3.44,7.68,7.68v31.66H22.54Z"/>
    <path class="st0" d="M101.79,84.21c3.45,0,6.25,2.8,6.25,6.25v30.23H22.54c-3.45,0-6.25-2.8-6.25-6.25v-17.74c0-6.9,5.59-12.49,12.49-12.49h73M101.79,81.35H28.79c-8.47,0-15.35,6.89-15.35,15.35v17.74c0,5.02,4.09,9.11,9.11,9.11h88.35v-33.1c0-5.02-4.09-9.11-9.11-9.11h0Z"/>
  </g>
  <g>
    <path class="st8" d="M56.35,168.14c-2.05,0-3.98-.8-5.43-2.25l-12.55-12.55c-5.43-5.43-5.43-14.26,0-19.69l51.62-51.62c1.45-1.45,3.38-2.25,5.43-2.25s3.98.8,5.43,2.25l12.54,12.54c2.63,2.63,4.08,6.13,4.08,9.85s-1.45,7.22-4.08,9.85l-51.62,51.62c-1.45,1.45-3.38,2.25-5.43,2.25Z"/>
    <path class="st0" d="M95.43,81.22c1.6,0,3.2.61,4.42,1.83l12.54,12.54c4.88,4.88,4.88,12.79,0,17.66l-51.62,51.62c-1.22,1.22-2.82,1.83-4.42,1.83s-3.2-.61-4.42-1.83l-12.54-12.54c-4.88-4.88-4.88-12.79,0-17.66l51.62-51.62c1.22-1.22,2.82-1.83,4.42-1.83M95.43,78.36c-2.43,0-4.72.95-6.44,2.67l-51.62,51.62c-5.99,5.99-5.99,15.73,0,21.71l12.54,12.54c1.72,1.72,4.01,2.67,6.44,2.67s4.72-.95,6.44-2.67l51.62-51.62c2.9-2.9,4.5-6.76,4.5-10.86s-1.6-7.96-4.5-10.86l-12.54-12.54c-1.72-1.72-4.01-2.67-6.44-2.67h0Z"/>
  </g>
  <g>
    <path class="st4" d="M94.33,176.77c-7.68,0-13.92-6.25-13.92-13.92v-73c0-4.23,3.44-7.68,7.68-7.68h17.74c7.68,0,13.92,6.25,13.92,13.92v73c0,4.23-3.44,7.68-7.68,7.68h-17.74Z"/>
    <path class="st0" d="M105.82,83.61c6.9,0,12.49,5.59,12.49,12.49v73c0,3.45-2.8,6.25-6.25,6.25h-17.74c-6.9,0-12.49-5.59-12.49-12.49v-73c0-3.45,2.8-6.25,6.25-6.25h17.74M105.82,80.74h-17.74c-5.02,0-9.11,4.09-9.11,9.11v73c0,8.47,6.89,15.35,15.35,15.35h17.74c5.02,0,9.11-4.09,9.11-9.11v-73c0-8.47-6.89-15.35-15.35-15.35h0Z"/>
  </g>
  <g>
    <path class="st7" d="M141.68,161.92c-3.72,0-7.21-1.45-9.85-4.08l-48.38-48.44c-1.45-1.45-2.25-3.38-2.25-5.43s.8-3.98,2.25-5.43l12.54-12.55c2.63-2.63,6.13-4.08,9.85-4.08s7.21,1.45,9.85,4.08l48.38,48.44c2.99,2.99,2.99,7.86,0,10.85l-12.55,12.55c-2.63,2.63-6.13,4.08-9.84,4.08Z"/>
    <path class="st0" d="M105.85,83.36c3.2,0,6.39,1.22,8.83,3.66l48.38,48.44c2.44,2.44,2.44,6.39,0,8.83l-12.54,12.54c-2.44,2.44-5.64,3.66-8.83,3.66s-6.39-1.22-8.83-3.66l-48.38-48.44c-2.44-2.44-2.44-6.39,0-8.83l12.54-12.54c2.44-2.44,5.64-3.66,8.83-3.66M105.85,80.5c-4.1,0-7.96,1.6-10.86,4.5l-12.54,12.54c-3.55,3.55-3.55,9.33,0,12.88l48.38,48.44c2.9,2.9,6.76,4.5,10.86,4.5s7.96-1.6,10.86-4.5l12.54-12.54c3.55-3.55,3.55-9.33,0-12.88l-48.38-48.44c-2.9-2.9-6.76-4.5-10.86-4.5h0Z"/>
  </g>
  <g>
    <path class="st6" d="M88.21,110.5c-4.23,0-7.68-3.44-7.68-7.68v-17.74c0-7.68,6.25-13.92,13.92-13.92h73c4.23,0,7.68,3.44,7.68,7.68v17.74c0,7.68-6.25,13.92-13.93,13.92h-73Z"/>
    <path class="st0" d="M167.45,72.59c3.45,0,6.25,2.8,6.25,6.25v17.74c0,6.9-5.59,12.49-12.49,12.49h-73c-3.45,0-6.25-2.8-6.25-6.25v-17.74c0-6.9,5.59-12.49,12.49-12.49h73M167.45,69.72h-73c-8.47,0-15.35,6.89-15.35,15.35v17.74c0,5.02,4.09,9.11,9.11,9.11h73c8.47,0,15.35-6.89,15.35-15.35v-17.74c0-5.02-4.09-9.11-9.11-9.11h0Z"/>
  </g>
</svg>